<svg width="50" height="50" viewBox="0 0 50 50" fill="none" xmlns="http://www.w3.org/2000/svg">
<g id="home" clip-path="url(#clip0_5096_2381)">
<g id="Group">
<path id="Vector8" fill-rule="evenodd" clip-rule="evenodd" d="M14.85 24.7606L24.243 15.1492L33.1843 24.5162C32.1052 24.5481 31.037 24.636 30.0204 24.7442L29.9193 24.7551L23.993 18.6491L18.1682 24.8497L17.4067 25.6604C16.5297 25.4682 15.6326 25.1904 14.8753 24.7746L14.85 24.7606Z" fill="white"/>
<path id="Vector7" d="M14.85 24.7606L24.243 15.1492L33.1843 24.5162C32.1052 24.5481 31.037 24.636 30.0204 24.7442L29.9193 24.7551L23.993 18.6491L18.1682 24.8497L17.4067 25.6604C16.5297 25.4682 15.6326 25.1904 14.8753 24.7746L14.85 24.7606Z" stroke="white" stroke-width="0.5669" stroke-miterlimit="2.6131"/>
<path id="Vector6" fill-rule="evenodd" clip-rule="evenodd" d="M29.2324 19.6976L31.7229 17.1492L39.1975 24.9796L41.5 27.3188C40.4675 26.2492 37.2616 24.699 36.061 24.59L31.5261 19.9058L30.487 21.0119L29.2324 19.6976Z" fill="white"/>
<path id="Vector5" d="M29.2324 19.6976L31.7229 17.1492L39.1975 24.9796L41.3563 27.1813C40.5563 26.3776 37.2616 24.699 36.061 24.59L31.5261 19.9058L30.487 21.0119L29.2324 19.6976Z" stroke="white" stroke-width="0.5669" stroke-miterlimit="2.6131"/>
<path id="Vector4" fill-rule="evenodd" clip-rule="evenodd" d="M18.5668 17.2251L24.1861 11.4751L29.6748 17.2251H27.8163L24.0524 13.3472L20.4095 17.2251H18.5668Z" fill="white"/>
<path id="Vector3" d="M18.5668 17.2251L24.1861 11.4751L29.6748 17.2251H27.8163L24.0524 13.3472L20.4095 17.2251H18.5668Z" stroke="white" stroke-width="0.5669" stroke-miterlimit="2.6131"/>
<path id="Vector2" fill-rule="evenodd" clip-rule="evenodd" d="M22.7487 22.1548H23.8713V23.2775H22.7487V22.1548ZM22.7487 23.7764H23.8713V24.8991H22.7487V23.7764ZM24.3703 23.7764H25.493V24.8991H24.3703V23.7764ZM24.3703 22.1548H25.493V23.2775H24.3703V22.1548Z" fill="white"/>
<path id="Vector1" fill-rule="evenodd" clip-rule="evenodd" d="M40.0934 33.6912C40.0981 34.2736 39.9086 34.8764 39.5072 35.3708C38.4074 36.7248 36.8592 36.7129 36.8592 36.7129C38.3952 36.6367 40.6839 34.4432 39.2503 33.3229C37.6221 32.0505 36.4738 35.3139 36.1127 35.7694C35.846 36.1059 35.5209 36.3376 35.1936 36.497C34.3895 36.8886 33.5718 36.8435 33.5718 36.8435C35.2023 37.591 36.5553 37.7813 37.6571 37.6196C40.4837 37.2051 41.6559 34.4739 41.6167 32.8932C41.6131 32.7511 41.6023 32.6103 41.5846 32.4713C41.5363 32.0919 41.4367 31.725 41.2936 31.3789C38.1642 21.5171 21.8628 28.03 16.0431 27.2447C15.8508 27.2177 15.6556 27.1876 15.4588 27.154L15.456 27.1535L15.4534 27.1531C14.2245 26.9431 12.9323 26.5983 11.9035 26.0334C10.8323 25.4451 9.91685 24.4968 9.90645 23.2326C9.90166 22.6501 10.0912 22.0473 10.4926 21.553C11.5924 20.199 13.1406 20.2108 13.1406 20.2108C11.6046 20.2871 9.31595 22.4805 10.7495 23.6009C12.3778 24.8732 13.5259 21.6099 13.8872 21.1544C14.1539 20.8179 14.4789 20.5862 14.8062 20.4267C15.6104 20.0351 16.428 20.0801 16.428 20.0801C14.7975 19.3328 13.4445 19.1425 12.3428 19.3041C9.5161 19.7187 8.34385 22.4498 8.38319 24.0306C8.38666 24.1726 8.39748 24.3134 8.41525 24.4525C8.4635 24.8318 8.56313 25.1988 8.7061 25.5449C11.8357 35.4066 28.137 28.8938 33.9568 29.6791C34.1491 29.7061 34.3442 29.7362 34.541 29.7698L34.5438 29.7702L34.5464 29.7707C35.7754 29.9806 37.0675 30.3254 38.0964 30.8903C39.1676 31.4787 40.0829 32.427 40.0934 33.6912Z" fill="white"/>
</g>
</g>
<defs>
<clipPath id="clip0_5096_2381">
<rect width="50" height="50" fill="white"/>
</clipPath>
</defs>
</svg>
